<svg xmlns="http://www.w3.org/2000/svg" viewBox="0 0 242 135"><g id="Layer_2" data-name="Layer 2"><g id="Layer_1-2" data-name="Layer 1"><path d="M71,10V39H9V10H71m3-3H6V42H74V7Z"/><rect x="41.5" y="1.5" width="28" height="59"/><path d="M68,3V59H43V3H68m3-3H40V62H71V0Z"/><path d="M119,45V85H77V45h42m3-3H74V88h48V42Z"/><path d="M170,45V85H128V45h42m3-3H125V88h48V42Z"/><path d="M221,45V85H179V45h42m3-3H176V88h48V42Z"/><path d="M119,94v15H104V94h15m3-3H101v21h21V91Z"/><path d="M119,117v15H104V117h15m3-3H101v21h21V114Z"/><path d="M194,94v15H179V94h15m3-3H176v21h21V91Z"/><path d="M239,45V56H228V45h11m3-3H225V59h17V42Z"/><path d="M239,27V38H228V27h11m3-3H225V41h17V24Z"/><path d="M239,9V20H228V9h11m3-3H225V23h17V6Z"/><path d="M194,117v15H179V117h15m3-3H176v21h21V114Z"/><rect x="1.5" y="3.5" width="5" height="5"/><path d="M5,5V7H3V5H5M8,2H0v8H8V2Z"/></g></g></svg>