<svg xmlns="http://www.w3.org/2000/svg" viewBox="0 0 243 61.04"><defs><style>.cls-1,.cls-2{fill:none;stroke:#000;stroke-miterlimit:10;}.cls-1{stroke-width:3px;}.cls-2{stroke-width:2px;}</style></defs><g id="Layer_2" data-name="Layer 2"><g id="Layer_2-2" data-name="Layer 2"><path d="M14,5.54v11H3v-11H14m3-3H0v17H17v-17Z"/><line class="cls-1" x1="1.5" y1="40.54" x2="1.5" y2="17.54"/><line class="cls-1" x1="17.5" y1="41.04" x2="1.5" y2="18.04"/><rect class="cls-1" x="25.5" y="20.04" width="18" height="20"/><rect class="cls-1" x="50.5" y="20.04" width="18" height="20"/><rect class="cls-1" x="73.5" y="20.04" width="18" height="20"/><rect class="cls-1" x="200.5" y="20.04" width="18" height="20"/><rect class="cls-1" x="223.5" y="20.04" width="18" height="20"/><line class="cls-1" x1="109.5" y1="0.04" x2="108.5" y2="40.04"/><line class="cls-2" x1="96.5" y1="20.04" x2="120.5" y2="20.04"/><line class="cls-1" x1="126.5" y1="19.04" x2="126.5" y2="40.04"/><line class="cls-1" x1="157.5" y1="19.04" x2="136.5" y2="19.04"/><line class="cls-1" x1="136.5" y1="41.54" x2="136.5" y2="17.54"/><line class="cls-1" x1="157.5" y1="40.04" x2="137" y2="40.04"/><line class="cls-1" x1="50.5" y1="2.04" x2="50.5" y2="23.04"/><rect class="cls-1" x="169.5" y="2.04" width="26" height="38"/><line class="cls-1" x1="241.5" y1="60.04" x2="241.5" y2="38.04"/><line class="cls-2" x1="223.5" y1="60.04" x2="242.5" y2="60.04"/></g></g></svg>