<svg xmlns="http://www.w3.org/2000/svg" viewBox="0 0 255 202.5"><defs><style>.cls-1,.cls-2{fill:none;stroke:#000;stroke-miterlimit:10;}.cls-1{stroke-width:3px;}.cls-2{stroke-width:2px;}</style></defs><g id="Layer_1" data-name="Layer 1"><path d="M165,67V96H103V67h62m3-3H100V99h68V64Z" transform="translate(-94 -57)"/><rect x="41.5" y="1.5" width="28" height="59"/><path d="M162,60v56H137V60h25m3-3H134v62h31V57Z" transform="translate(-94 -57)"/><path d="M213,102v40H171V102h42m3-3H168v46h48V99Z" transform="translate(-94 -57)"/><path d="M264,102v40H222V102h42m3-3H219v46h48V99Z" transform="translate(-94 -57)"/><path d="M315,102v40H273V102h42m3-3H270v46h48V99Z" transform="translate(-94 -57)"/><path d="M213,151v15H198V151h15m3-3H195v21h21V148Z" transform="translate(-94 -57)"/><path d="M213,174v15H198V174h15m3-3H195v21h21V171Z" transform="translate(-94 -57)"/><path d="M288,151v15H273V151h15m3-3H270v21h21V148Z" transform="translate(-94 -57)"/><path d="M333,102v11H322V102h11m3-3H319v17h17V99Z" transform="translate(-94 -57)"/><path d="M333,84V95H322V84h11m3-3H319V98h17V81Z" transform="translate(-94 -57)"/><path d="M333,66V77H322V66h11m3-3H319V80h17V63Z" transform="translate(-94 -57)"/><path d="M288,174v15H273V174h15m3-3H270v21h21V171Z" transform="translate(-94 -57)"/><rect x="1.5" y="3.5" width="5" height="5"/><path d="M99,62v2H97V62h2m3-3H94v8h8V59Z" transform="translate(-94 -57)"/></g><g id="Layer_2" data-name="Layer 2"><path d="M120,204v11H109V204h11m3-3H106v17h17V201Z" transform="translate(-94 -57)"/><line class="cls-1" x1="13.5" y1="182" x2="13.5" y2="159"/><line class="cls-1" x1="29.5" y1="182.5" x2="13.5" y2="159.5"/><rect class="cls-1" x="37.5" y="161.5" width="18" height="20"/><rect class="cls-1" x="62.5" y="161.5" width="18" height="20"/><rect class="cls-1" x="85.5" y="161.5" width="18" height="20"/><rect class="cls-1" x="212.5" y="161.5" width="18" height="20"/><rect class="cls-1" x="235.5" y="161.5" width="18" height="20"/><line class="cls-1" x1="121.5" y1="141.5" x2="120.5" y2="181.5"/><line class="cls-2" x1="108.5" y1="161.5" x2="132.5" y2="161.5"/><line class="cls-1" x1="138.5" y1="160.5" x2="138.5" y2="181.5"/><line class="cls-1" x1="169.5" y1="160.5" x2="148.5" y2="160.5"/><line class="cls-1" x1="148.5" y1="183" x2="148.5" y2="159"/><line class="cls-1" x1="169.5" y1="181.5" x2="149" y2="181.5"/><line class="cls-1" x1="62.5" y1="143.5" x2="62.5" y2="164.5"/><rect class="cls-1" x="181.5" y="143.5" width="26" height="38"/><line class="cls-1" x1="253.5" y1="201.5" x2="253.5" y2="179.5"/><line class="cls-2" x1="235.5" y1="201.5" x2="254.5" y2="201.5"/></g></svg>